<svg width="1920" height="111" viewBox="0 0 1920 111" fill="none" xmlns="http://www.w3.org/2000/svg">
<path fill-rule="evenodd" clip-rule="evenodd" d="M0 44.4L64 53.28C128 62.16 256 79.92 384 75.48C512 71.04 640 44.4 768 26.64C896 8.88 1024 0 1152 0C1280 0 1408 8.88 1536 24.42C1664 39.96 1792 62.16 1856 73.26L1920 84.36V111H1856C1792 111 1664 111 1536 111C1408 111 1280 111 1152 111C1024 111 896 111 768 111C640 111 512 111 384 111C256 111 128 111 64 111H0V44.4Z" fill="white" fill-opacity="0.8"/>
<path fill-rule="evenodd" clip-rule="evenodd" d="M0 0L79.5 4.17052C160.5 8.34104 319.5 16.6821 480 30.7977C640.5 45.2341 799.5 65.7659 960 69.9364C1120.5 74.1069 1279.5 61.5954 1440 57.7457C1600.5 53.5751 1759.5 57.7457 1840.5 59.6705L1920 61.5954V111H1840.5C1759.5 111 1600.5 111 1440 111C1279.5 111 1120.5 111 960 111C799.5 111 640.5 111 480 111C319.5 111 160.5 111 79.5 111H0V0Z" fill="#F51212" fill-opacity="0.8"/>
<path d="M853.709 102H848.949V101.26H849.009C849.502 101.26 849.835 101.127 850.009 100.86C850.195 100.58 850.289 100.133 850.289 99.52C850.289 99.2667 850.282 99.0667 850.269 98.92L849.789 91L849.749 91.1L845.249 102.08H844.409L842.909 98.74C842.162 97.1267 841.529 95.7333 841.009 94.56C840.489 93.3733 839.995 92.1733 839.529 90.96V91.14C839.529 91.34 839.522 91.5 839.509 91.62C839.402 95.1667 839.335 97.78 839.309 99.46C839.309 99.6467 839.302 99.7867 839.289 99.88C839.289 100.32 839.269 100.733 839.229 101.12L840.729 101.04V102H836.629V101.26H836.689C837.222 101.273 837.569 101.133 837.729 100.84C837.889 100.533 837.982 100.073 838.009 99.46L838.449 88.88L837.009 88.94V88H840.329L845.229 99.12C845.655 98.1067 845.955 97.3667 846.129 96.9C846.502 95.94 847.075 94.5733 847.849 92.8C848.769 90.6667 849.435 89.0667 849.849 88H853.069V88.74H853.009C852.555 88.7133 852.215 88.8333 851.989 89.1C851.775 89.3533 851.669 89.8067 851.669 90.46L851.689 90.88L852.209 99.9C852.235 100.193 852.249 100.593 852.249 101.1L853.709 101.04V102ZM867.948 102H865.368C864.968 102 864.255 101.34 863.228 100.02L860.828 96.82C860.481 96.3667 860.201 96.02 859.988 95.78C859.775 95.5267 859.575 95.34 859.388 95.22L858.608 95.24V99.58C858.608 99.6867 858.608 99.8667 858.608 100.12C858.608 100.373 858.595 100.567 858.568 100.7C858.555 100.833 858.528 100.973 858.488 101.12L859.988 101.04V102H855.208V101.26H855.268C855.721 101.26 856.041 101.167 856.228 100.98C856.415 100.78 856.521 100.547 856.548 100.28C856.575 100.013 856.588 99.5333 856.588 98.84V90.28C856.588 89.7467 856.608 89.28 856.648 88.88L855.208 88.96V88H859.988V88.74H859.928C859.475 88.74 859.155 88.84 858.968 89.04C858.781 89.2267 858.675 89.4533 858.648 89.72C858.621 89.9867 858.608 90.4667 858.608 91.16V94.36H859.868L862.348 90.48C862.801 89.7867 863.255 89.2467 863.708 88.86L862.528 88.9V88H867.108V88.74C866.468 88.78 865.941 88.8733 865.528 89.02C865.115 89.1533 864.708 89.4067 864.308 89.78C863.921 90.1533 863.501 90.7 863.048 91.42L861.088 94.48C861.435 94.6933 861.715 94.92 861.928 95.16C862.155 95.4 862.428 95.7333 862.748 96.16L864.988 99.1C865.495 99.7667 865.901 100.253 866.208 100.56C866.528 100.867 866.801 101.06 867.028 101.14C867.255 101.22 867.541 101.26 867.888 101.26H867.948V102ZM881.46 88.74H881.4C880.814 88.7667 880.374 88.9133 880.08 89.18C879.787 89.4333 879.514 89.9333 879.26 90.68C879.034 91.2533 877.62 95.0867 875.02 102.18H874.22L869.68 91.62C869.187 90.5 868.894 89.6 868.8 88.92L867.68 88.96V88H872.6V88.76C872.134 88.7867 871.794 88.88 871.58 89.04C871.38 89.2 871.28 89.4333 871.28 89.74C871.28 90.0333 871.374 90.4067 871.56 90.86C871.867 91.62 872.04 92.04 872.08 92.12C872.627 93.52 873.087 94.64 873.46 95.48C874.127 96.9467 874.634 98.1133 874.98 98.98C875.14 98.4467 875.434 97.6133 875.86 96.48C875.94 96.2533 876.02 96.02 876.1 95.78C876.194 95.5267 876.294 95.2733 876.4 95.02L878.08 90.3C878.307 89.6867 878.494 89.2133 878.64 88.88L877.12 88.96V88H881.46V88.74ZM883.727 89.92C883.42 89.92 883.147 89.7933 882.907 89.54C882.68 89.2867 882.567 88.9867 882.567 88.64C882.567 88.28 882.687 87.9733 882.927 87.72C883.167 87.4667 883.44 87.34 883.747 87.34C884.067 87.34 884.34 87.4667 884.567 87.72C884.793 87.9733 884.907 88.28 884.907 88.64C884.907 88.9867 884.787 89.2867 884.547 89.54C884.307 89.7933 884.033 89.92 883.727 89.92ZM885.767 102.12H881.787V101.34H881.807C882.153 101.353 882.4 101.287 882.547 101.14C882.707 100.98 882.8 100.773 882.827 100.52C882.853 100.253 882.867 99.8267 882.867 99.24V95.1C882.867 94.7933 882.887 94.4333 882.927 94.02L881.647 94.1V93.1H881.667C882.453 93.1 883 93.06 883.307 92.98C883.613 92.8867 883.84 92.76 883.987 92.6H884.687V100.08C884.687 100.573 884.667 100.94 884.627 101.18L885.767 101.14V102.12ZM889.036 94.68C889.036 95.1333 889.223 95.4933 889.596 95.76C889.983 96.0133 890.57 96.2933 891.356 96.6C892.01 96.8533 892.543 97.0933 892.956 97.32C893.383 97.5467 893.736 97.8533 894.016 98.24C894.31 98.6133 894.456 99.0733 894.456 99.62C894.456 100.233 894.296 100.753 893.976 101.18C893.656 101.593 893.243 101.9 892.736 102.1C892.23 102.313 891.696 102.42 891.136 102.42C890.603 102.42 890.103 102.353 889.636 102.22C889.17 102.087 888.763 101.92 888.416 101.72L888.496 102.24H887.496L887.376 98.88H888.176C888.176 99.3733 888.29 99.82 888.516 100.22C888.756 100.607 889.076 100.913 889.476 101.14C889.89 101.353 890.33 101.46 890.796 101.46C891.303 101.46 891.75 101.347 892.136 101.12C892.536 100.893 892.736 100.567 892.736 100.14C892.736 99.7133 892.556 99.38 892.196 99.14C891.836 98.9 891.27 98.6267 890.496 98.32C889.843 98.08 889.303 97.8533 888.876 97.64C888.463 97.4133 888.11 97.1067 887.816 96.72C887.523 96.3333 887.376 95.8467 887.376 95.26C887.376 94.86 887.476 94.4467 887.676 94.02C887.89 93.5933 888.236 93.2333 888.716 92.94C889.21 92.6467 889.856 92.5 890.656 92.5C891.456 92.5 892.19 92.7267 892.856 93.18L892.816 92.58H893.796V96.02H893.016C892.976 95.3 892.77 94.6867 892.396 94.18C892.023 93.6733 891.47 93.42 890.736 93.42C890.203 93.42 889.783 93.54 889.476 93.78C889.183 94.02 889.036 94.32 889.036 94.68ZM905.885 102.12H903.045C902.978 101.8 902.932 101.473 902.905 101.14C902.492 101.513 902.018 101.82 901.485 102.06C900.965 102.3 900.458 102.42 899.965 102.42C898.898 102.42 898.105 102.107 897.585 101.48C897.078 100.853 896.825 99.8 896.825 98.32V95.1C896.825 94.6333 896.838 94.2733 896.865 94.02L895.625 94.08V93.1H896.305C896.798 93.1 897.158 93.06 897.385 92.98C897.625 92.8867 897.818 92.76 897.965 92.6H898.665V98.28C898.665 99.3067 898.805 100.06 899.085 100.54C899.365 101.007 899.845 101.24 900.525 101.24C900.965 101.24 901.392 101.113 901.805 100.86C902.218 100.607 902.558 100.293 902.825 99.92V95.3C902.825 94.78 902.852 94.3533 902.905 94.02L901.605 94.08V93.1H902.265C902.758 93.1 903.125 93.06 903.365 92.98C903.605 92.8867 903.798 92.76 903.945 92.6H904.645L904.625 99.6C904.625 100.213 904.598 100.74 904.545 101.18L905.885 101.12V102.12ZM911.057 92.48C912.044 92.48 912.837 92.78 913.437 93.38C914.051 93.9667 914.351 94.8333 914.337 95.98L914.317 99.94C914.317 100.233 914.297 100.593 914.257 101.02L915.557 100.96V102H912.817C912.764 101.72 912.711 101.387 912.657 101C911.764 101.867 910.817 102.3 909.817 102.3C908.911 102.3 908.204 102.087 907.697 101.66C907.204 101.22 906.957 100.66 906.957 99.98C906.957 99.2467 907.244 98.6333 907.817 98.14C908.391 97.6333 909.111 97.26 909.977 97.02C910.857 96.7667 911.737 96.64 912.617 96.64V95.8C912.617 95.0133 912.504 94.4067 912.277 93.98C912.051 93.5533 911.571 93.34 910.837 93.34C910.491 93.34 910.144 93.4267 909.797 93.6C909.464 93.76 909.217 93.9733 909.057 94.24C909.151 94.3333 909.211 94.4267 909.237 94.52C909.264 94.6133 909.277 94.7467 909.277 94.92C909.277 95.1333 909.197 95.34 909.037 95.54C908.891 95.74 908.671 95.84 908.377 95.84C908.124 95.84 907.917 95.74 907.757 95.54C907.597 95.34 907.517 95.0933 907.517 94.8C907.517 94.1333 907.844 93.58 908.497 93.14C909.151 92.7 910.004 92.48 911.057 92.48ZM912.617 97.54C911.604 97.5933 910.691 97.7933 909.877 98.14C909.064 98.4867 908.657 99 908.657 99.68C908.657 100.093 908.811 100.413 909.117 100.64C909.424 100.867 909.797 100.98 910.237 100.98C910.717 100.98 911.137 100.9 911.497 100.74C911.871 100.567 912.244 100.307 912.617 99.96C912.604 99.7733 912.597 99.4933 912.597 99.12C912.597 99.0533 912.597 98.9067 912.597 98.68C912.611 98.44 912.617 98.06 912.617 97.54ZM920.606 102.12H916.606V101.34H916.626C916.986 101.353 917.24 101.287 917.386 101.14C917.546 100.98 917.64 100.773 917.666 100.52C917.693 100.253 917.706 99.8267 917.706 99.24V90.64C917.706 90.2133 917.72 89.86 917.746 89.58L916.446 89.64V88.64H916.466C917.24 88.64 917.78 88.6 918.086 88.52C918.406 88.44 918.66 88.32 918.846 88.16H919.506L919.526 100.08C919.526 100.493 919.5 100.86 919.446 101.18L920.606 101.14V102.12ZM924 89.92C923.694 89.92 923.42 89.7933 923.18 89.54C922.954 89.2867 922.84 88.9867 922.84 88.64C922.84 88.28 922.96 87.9733 923.2 87.72C923.44 87.4667 923.714 87.34 924.02 87.34C924.34 87.34 924.614 87.4667 924.84 87.72C925.067 87.9733 925.18 88.28 925.18 88.64C925.18 88.9867 925.06 89.2867 924.82 89.54C924.58 89.7933 924.307 89.92 924 89.92ZM926.04 102.12H922.06V101.34H922.08C922.427 101.353 922.674 101.287 922.82 101.14C922.98 100.98 923.074 100.773 923.1 100.52C923.127 100.253 923.14 99.8267 923.14 99.24V95.1C923.14 94.7933 923.16 94.4333 923.2 94.02L921.92 94.1V93.1H921.94C922.727 93.1 923.274 93.06 923.58 92.98C923.887 92.8867 924.114 92.76 924.26 92.6H924.96V100.08C924.96 100.573 924.94 100.94 924.9 101.18L926.04 101.14V102.12ZM930.11 100.32C930.07 100.373 929.983 100.487 929.85 100.66C929.717 100.82 929.557 100.98 929.37 101.14H929.35L932.63 101.18C933.337 101.193 933.837 100.98 934.13 100.54C934.437 100.087 934.65 99.4333 934.77 98.58H935.51L935.27 102.12H927.39V101.2L932.57 94.64C933.01 94.1067 933.29 93.78 933.41 93.66L930.23 93.72C929.617 93.7333 929.19 93.9533 928.95 94.38C928.71 94.7933 928.53 95.4267 928.41 96.28H927.65L927.89 92.78H935.37V93.56L930.11 100.32ZM941.018 92.48C942.005 92.48 942.798 92.78 943.398 93.38C944.012 93.9667 944.312 94.8333 944.298 95.98L944.278 99.94C944.278 100.233 944.258 100.593 944.218 101.02L945.518 100.96V102H942.778C942.725 101.72 942.672 101.387 942.618 101C941.725 101.867 940.778 102.3 939.778 102.3C938.872 102.3 938.165 102.087 937.658 101.66C937.165 101.22 936.918 100.66 936.918 99.98C936.918 99.2467 937.205 98.6333 937.778 98.14C938.352 97.6333 939.072 97.26 939.938 97.02C940.818 96.7667 941.698 96.64 942.578 96.64V95.8C942.578 95.0133 942.465 94.4067 942.238 93.98C942.012 93.5533 941.532 93.34 940.798 93.34C940.452 93.34 940.105 93.4267 939.758 93.6C939.425 93.76 939.178 93.9733 939.018 94.24C939.112 94.3333 939.172 94.4267 939.198 94.52C939.225 94.6133 939.238 94.7467 939.238 94.92C939.238 95.1333 939.158 95.34 938.998 95.54C938.852 95.74 938.632 95.84 938.338 95.84C938.085 95.84 937.878 95.74 937.718 95.54C937.558 95.34 937.478 95.0933 937.478 94.8C937.478 94.1333 937.805 93.58 938.458 93.14C939.112 92.7 939.965 92.48 941.018 92.48ZM942.578 97.54C941.565 97.5933 940.652 97.7933 939.838 98.14C939.025 98.4867 938.618 99 938.618 99.68C938.618 100.093 938.772 100.413 939.078 100.64C939.385 100.867 939.758 100.98 940.198 100.98C940.678 100.98 941.098 100.9 941.458 100.74C941.832 100.567 942.205 100.307 942.578 99.96C942.565 99.7733 942.558 99.4933 942.558 99.12C942.558 99.0533 942.558 98.9067 942.558 98.68C942.572 98.44 942.578 98.06 942.578 97.54ZM949.567 91.62L949.547 92.78H952.667V93.74L949.567 93.78L949.527 98.7C949.527 99.5533 949.621 100.173 949.807 100.56C949.994 100.947 950.334 101.14 950.827 101.14C951.147 101.14 951.461 101.047 951.767 100.86C952.087 100.66 952.354 100.38 952.567 100.02H952.607L953.267 100.54C952.427 101.793 951.447 102.42 950.327 102.42C948.554 102.42 947.674 101.26 947.687 98.94L947.727 93.8L946.307 93.82V92.78C946.921 92.8067 947.427 92.56 947.827 92.04C948.241 91.52 948.554 90.92 948.767 90.24H949.567V91.62ZM956.031 89.92C955.725 89.92 955.451 89.7933 955.211 89.54C954.985 89.2867 954.871 88.9867 954.871 88.64C954.871 88.28 954.991 87.9733 955.231 87.72C955.471 87.4667 955.745 87.34 956.051 87.34C956.371 87.34 956.645 87.4667 956.871 87.72C957.098 87.9733 957.211 88.28 957.211 88.64C957.211 88.9867 957.091 89.2867 956.851 89.54C956.611 89.7933 956.338 89.92 956.031 89.92ZM958.071 102.12H954.091V101.34H954.111C954.458 101.353 954.705 101.287 954.851 101.14C955.011 100.98 955.105 100.773 955.131 100.52C955.158 100.253 955.171 99.8267 955.171 99.24V95.1C955.171 94.7933 955.191 94.4333 955.231 94.02L953.951 94.1V93.1H953.971C954.758 93.1 955.305 93.06 955.611 92.98C955.918 92.8867 956.145 92.76 956.291 92.6H956.991V100.08C956.991 100.573 956.971 100.94 956.931 101.18L958.071 101.14V102.12ZM963.861 92.48C964.715 92.48 965.488 92.6867 966.181 93.1C966.888 93.5133 967.441 94.0867 967.841 94.82C968.241 95.54 968.441 96.3467 968.441 97.24C968.441 98.2 968.241 99.08 967.841 99.88C967.441 100.667 966.895 101.293 966.201 101.76C965.508 102.213 964.728 102.44 963.861 102.44C963.008 102.44 962.235 102.24 961.541 101.84C960.848 101.427 960.301 100.86 959.901 100.14C959.515 99.4067 959.321 98.5867 959.321 97.68C959.321 96.7067 959.515 95.8267 959.901 95.04C960.301 94.24 960.848 93.6133 961.541 93.16C962.235 92.7067 963.008 92.48 963.861 92.48ZM963.861 93.44C962.968 93.44 962.295 93.7933 961.841 94.5C961.401 95.2067 961.181 96.0867 961.181 97.14C961.181 98.34 961.421 99.3533 961.901 100.18C962.395 101.007 963.095 101.42 964.001 101.42C964.908 101.42 965.568 101.08 965.981 100.4C966.395 99.7067 966.601 98.8267 966.601 97.76C966.601 96.5733 966.368 95.56 965.901 94.72C965.448 93.8667 964.768 93.44 963.861 93.44ZM979.423 102H975.523V101.18C975.883 101.193 976.136 101.127 976.283 100.98C976.443 100.82 976.536 100.613 976.563 100.36C976.589 100.093 976.603 99.6733 976.603 99.1V96.7C976.589 95.66 976.429 94.9 976.123 94.42C975.816 93.9267 975.303 93.68 974.583 93.68C974.156 93.68 973.723 93.7867 973.283 94C972.856 94.2 972.503 94.4667 972.223 94.8C972.236 94.92 972.243 95.1333 972.243 95.44L972.223 99.94C972.223 100.433 972.209 100.793 972.183 101.02L973.323 100.98V102H969.423V101.18C969.783 101.193 970.036 101.127 970.183 100.98C970.329 100.82 970.416 100.62 970.443 100.38C970.469 100.127 970.489 99.7 970.503 99.1L970.523 95.1C970.523 94.6467 970.543 94.2933 970.583 94.04L969.283 94.12V93.08C970.056 93.08 970.576 93.04 970.843 92.96C971.123 92.88 971.349 92.76 971.523 92.6V92.58H972.123V92.62C972.163 92.8333 972.196 93.1933 972.223 93.7V93.66C972.649 93.3 973.123 93.0133 973.643 92.8C974.163 92.5867 974.676 92.48 975.183 92.48C976.249 92.48 977.043 92.8267 977.563 93.52C978.083 94.2 978.343 95.26 978.343 96.7V99.94C978.343 100.433 978.323 100.793 978.283 101.02L979.423 100.98V102ZM1005.64 88.74C1005.15 88.7933 1004.78 88.8867 1004.54 89.02C1004.3 89.1533 1004.09 89.4067 1003.9 89.78C1003.72 90.1533 1003.47 90.7867 1003.16 91.68L1002.2 94.52C1001.15 97.72 1000.26 100.293 999.543 102.24H998.703L995.083 91.94L991.683 102.24H990.863L987.263 91.62L986.983 90.8C986.663 89.8 986.476 89.1733 986.423 88.92L985.303 88.96V88H990.443V88.74H990.383C989.849 88.7667 989.469 88.8467 989.243 88.98C989.029 89.1133 988.923 89.3467 988.923 89.68C988.923 89.9467 988.996 90.34 989.143 90.86C989.383 91.8067 989.736 92.9067 990.203 94.16L990.663 95.48C990.743 95.7733 990.849 96.1 990.983 96.46C991.116 96.82 991.216 97.1067 991.283 97.32C991.523 97.96 991.663 98.3467 991.703 98.48C991.809 98.0933 992.043 97.3333 992.403 96.2C993.029 94.2267 993.549 92.64 993.963 91.44C994.589 89.56 994.963 88.4 995.083 87.96H995.963C996.176 88.7333 996.809 90.6467 997.863 93.7L998.463 95.48C998.609 95.9733 998.803 96.5733 999.043 97.28L999.523 98.76C999.736 98.0133 999.969 97.26 1000.22 96.5C1000.76 95.0067 1001.34 93.28 1001.96 91.32C1002.06 90.96 1002.16 90.62 1002.28 90.3C1002.34 90.18 1002.42 89.9733 1002.52 89.68C1002.64 89.3867 1002.76 89.1267 1002.88 88.9L1001.3 88.96V88H1005.64V88.74ZM1014.77 100.2C1014.29 100.933 1013.65 101.487 1012.87 101.86C1012.08 102.233 1011.32 102.42 1010.59 102.42C1009.72 102.42 1008.93 102.22 1008.23 101.82C1007.53 101.407 1006.98 100.827 1006.57 100.08C1006.17 99.32 1005.97 98.4533 1005.97 97.48C1005.97 96.6133 1006.17 95.8 1006.57 95.04C1006.98 94.2667 1007.55 93.6533 1008.27 93.2C1009 92.7333 1009.82 92.5 1010.73 92.5C1011.46 92.5 1012.12 92.66 1012.71 92.98C1013.29 93.3 1013.75 93.78 1014.09 94.42C1014.43 95.06 1014.6 95.84 1014.59 96.76H1014.57L1008.05 96.86H1008.07C1008.08 98.26 1008.33 99.34 1008.81 100.1C1009.29 100.86 1010.03 101.24 1011.03 101.24C1011.61 101.24 1012.2 101.093 1012.79 100.8C1013.39 100.507 1013.83 100.147 1014.13 99.72H1014.17L1014.77 100.2ZM1010.75 93.44C1010.04 93.44 1009.47 93.6333 1009.03 94.02C1008.6 94.4067 1008.31 95.02 1008.15 95.86H1012.65C1012.63 95.18 1012.47 94.6067 1012.15 94.14C1011.84 93.6733 1011.37 93.44 1010.75 93.44ZM1021.24 92.5C1022.04 92.5 1022.77 92.7 1023.42 93.1C1024.09 93.4867 1024.61 94.04 1024.98 94.76C1025.37 95.4667 1025.56 96.2933 1025.56 97.24C1025.56 98.2533 1025.33 99.1533 1024.86 99.94C1024.41 100.727 1023.8 101.34 1023.04 101.78C1022.29 102.207 1021.49 102.42 1020.64 102.42C1020.17 102.42 1019.69 102.333 1019.2 102.16C1018.72 102 1018.29 101.733 1017.92 101.36L1017.54 102.12H1016.72L1016.76 90.64C1016.76 90.2133 1016.77 89.86 1016.78 89.58L1015.5 89.64V88.64H1015.52C1016.31 88.64 1016.85 88.6 1017.16 88.52C1017.47 88.44 1017.7 88.32 1017.86 88.16H1018.56V93.44C1018.91 93.1333 1019.31 92.9 1019.76 92.74C1020.23 92.58 1020.72 92.5 1021.24 92.5ZM1020.64 101.42C1021.49 101.42 1022.17 101.08 1022.68 100.4C1023.2 99.72 1023.46 98.82 1023.46 97.7C1023.46 96.4467 1023.23 95.4533 1022.76 94.72C1022.29 93.9867 1021.61 93.62 1020.7 93.62C1020.31 93.62 1019.93 93.7133 1019.54 93.9C1019.15 94.0733 1018.83 94.3067 1018.56 94.6V99.14C1018.56 99.9933 1018.75 100.587 1019.12 100.92C1019.49 101.253 1020 101.42 1020.64 101.42ZM1039.2 102H1034.34V101.26H1034.4C1035.16 101.26 1035.54 100.96 1035.54 100.36C1035.54 100.147 1035.47 99.8333 1035.32 99.42L1034.64 97.6L1029.62 97.72H1029.68C1029.52 98.16 1029.29 98.8533 1029 99.8C1028.88 100.2 1028.72 100.64 1028.52 101.12L1030.06 101.04V102H1026.04V101.26H1026.1C1026.41 101.273 1026.65 101.213 1026.84 101.08C1027.04 100.933 1027.2 100.74 1027.32 100.5C1027.44 100.26 1027.59 99.8933 1027.76 99.4C1027.77 99.3467 1027.85 99.14 1027.98 98.78L1032.12 87.58H1032.84L1037.32 98.94C1037.68 99.9 1037.85 100.627 1037.84 101.12L1039.2 101.04V102ZM1032.92 93.02L1032.14 90.86L1031.42 92.82C1030.95 94.1 1030.49 95.42 1030.02 96.78H1034.32L1032.92 93.02ZM1045.1 92.5C1045.83 92.5 1046.52 92.6933 1047.16 93.08C1047.8 93.4533 1048.31 93.9933 1048.7 94.7C1049.09 95.3933 1049.28 96.2 1049.28 97.12C1049.28 98.1467 1049.05 99.0667 1048.6 99.88C1048.16 100.68 1047.57 101.307 1046.82 101.76C1046.09 102.2 1045.29 102.42 1044.44 102.42C1043.65 102.42 1042.95 102.247 1042.32 101.9V104.7C1042.32 105.207 1042.3 105.58 1042.26 105.82L1043.4 105.78V106.76H1039.42V105.98H1039.44C1039.79 105.993 1040.03 105.92 1040.18 105.76C1040.34 105.613 1040.43 105.407 1040.46 105.14C1040.49 104.887 1040.51 104.467 1040.52 103.88L1040.54 95.1C1040.54 94.6333 1040.56 94.2733 1040.6 94.02L1039.3 94.1V93.1H1039.32C1039.87 93.1 1040.29 93.08 1040.58 93.04C1040.87 92.9867 1041.07 92.9333 1041.18 92.88C1041.3 92.8133 1041.42 92.72 1041.54 92.6H1042.22C1042.26 93.0667 1042.29 93.36 1042.3 93.48C1042.67 93.1867 1043.11 92.9533 1043.6 92.78C1044.11 92.5933 1044.61 92.5 1045.1 92.5ZM1044.4 101.44C1045.24 101.44 1045.91 101.073 1046.4 100.34C1046.91 99.5933 1047.16 98.62 1047.16 97.42C1047.16 96.3533 1046.93 95.4533 1046.48 94.72C1046.03 93.9867 1045.34 93.62 1044.42 93.62C1044.03 93.62 1043.65 93.7133 1043.28 93.9C1042.92 94.0733 1042.61 94.3 1042.34 94.58C1042.35 94.6733 1042.36 95.08 1042.36 95.8L1042.34 100.78C1042.95 101.22 1043.64 101.44 1044.4 101.44ZM1056.29 92.5C1057.02 92.5 1057.71 92.6933 1058.35 93.08C1058.99 93.4533 1059.5 93.9933 1059.89 94.7C1060.28 95.3933 1060.47 96.2 1060.47 97.12C1060.47 98.1467 1060.24 99.0667 1059.79 99.88C1059.35 100.68 1058.76 101.307 1058.01 101.76C1057.28 102.2 1056.48 102.42 1055.63 102.42C1054.84 102.42 1054.14 102.247 1053.51 101.9V104.7C1053.51 105.207 1053.49 105.58 1053.45 105.82L1054.59 105.78V106.76H1050.61V105.98H1050.63C1050.98 105.993 1051.22 105.92 1051.37 105.76C1051.53 105.613 1051.62 105.407 1051.65 105.14C1051.68 104.887 1051.7 104.467 1051.71 103.88L1051.73 95.1C1051.73 94.6333 1051.75 94.2733 1051.79 94.02L1050.49 94.1V93.1H1050.51C1051.06 93.1 1051.48 93.08 1051.77 93.04C1052.06 92.9867 1052.26 92.9333 1052.37 92.88C1052.49 92.8133 1052.61 92.72 1052.73 92.6H1053.41C1053.45 93.0667 1053.48 93.36 1053.49 93.48C1053.86 93.1867 1054.3 92.9533 1054.79 92.78C1055.3 92.5933 1055.8 92.5 1056.29 92.5ZM1055.59 101.44C1056.43 101.44 1057.1 101.073 1057.59 100.34C1058.1 99.5933 1058.35 98.62 1058.35 97.42C1058.35 96.3533 1058.12 95.4533 1057.67 94.72C1057.22 93.9867 1056.53 93.62 1055.61 93.62C1055.22 93.62 1054.84 93.7133 1054.47 93.9C1054.11 94.0733 1053.8 94.3 1053.53 94.58C1053.54 94.6733 1053.55 95.08 1053.55 95.8L1053.53 100.78C1054.14 101.22 1054.83 101.44 1055.59 101.44ZM1075.37 87C1076.88 87 1078.23 87.36 1079.43 88.08C1080.65 88.8 1081.59 89.7733 1082.25 91C1082.93 92.2267 1083.27 93.5733 1083.27 95.04C1083.27 96.48 1082.92 97.8133 1082.21 99.04C1081.51 100.253 1080.55 101.22 1079.33 101.94C1078.12 102.647 1076.79 103 1075.33 103C1073.79 103 1072.41 102.66 1071.21 101.98C1070.01 101.3 1069.09 100.353 1068.43 99.14C1067.78 97.9267 1067.45 96.56 1067.45 95.04C1067.45 93.5733 1067.79 92.2267 1068.47 91C1069.15 89.7733 1070.09 88.8 1071.29 88.08C1072.51 87.36 1073.87 87 1075.37 87ZM1075.33 87.98C1074.07 87.98 1072.93 88.3067 1071.93 88.96C1070.95 89.6133 1070.17 90.48 1069.61 91.56C1069.07 92.64 1068.79 93.8 1068.79 95.04C1068.79 96.28 1069.06 97.4333 1069.59 98.5C1070.14 99.5533 1070.91 100.4 1071.91 101.04C1072.91 101.68 1074.07 102 1075.39 102C1076.67 102 1077.81 101.68 1078.81 101.04C1079.81 100.4 1080.59 99.5533 1081.13 98.5C1081.68 97.4333 1081.95 96.28 1081.95 95.04C1081.95 93.8 1081.67 92.64 1081.11 91.56C1080.55 90.48 1079.77 89.6133 1078.75 88.96C1077.75 88.3067 1076.61 87.98 1075.33 87.98ZM1075.51 90.02C1075.99 90.02 1076.46 90.0933 1076.91 90.24C1077.37 90.3867 1077.77 90.5867 1078.13 90.84L1078.05 90.12H1079.05V93.48H1078.25C1078.15 92.6533 1077.86 92.0533 1077.39 91.68C1076.93 91.2933 1076.33 91.1 1075.59 91.1C1075.07 91.1 1074.57 91.2467 1074.09 91.54C1073.61 91.8333 1073.23 92.26 1072.93 92.82C1072.64 93.38 1072.49 94.0533 1072.49 94.84C1072.49 95.5733 1072.64 96.2333 1072.93 96.82C1073.24 97.4067 1073.66 97.8667 1074.19 98.2C1074.73 98.5333 1075.34 98.7 1076.03 98.7C1076.5 98.7 1077.01 98.5667 1077.55 98.3C1078.1 98.02 1078.55 97.66 1078.91 97.22L1079.51 97.92C1078.98 98.6533 1078.34 99.18 1077.59 99.5C1076.86 99.8067 1076.15 99.96 1075.45 99.96C1074.55 99.96 1073.72 99.7467 1072.97 99.32C1072.24 98.88 1071.66 98.2933 1071.23 97.56C1070.82 96.8133 1070.61 95.9867 1070.61 95.08C1070.61 94.2533 1070.8 93.4533 1071.17 92.68C1071.56 91.9067 1072.13 91.2733 1072.87 90.78C1073.62 90.2733 1074.5 90.02 1075.51 90.02Z" fill="black"/>
</svg>
